<?xml version="1.0" encoding="utf-8"?>
<!-- Generator: Adobe Illustrator 26.0.2, SVG Export Plug-In . SVG Version: 6.00 Build 0)  -->
<svg version="1.1" id="Layer_1" xmlns="http://www.w3.org/2000/svg" xmlns:xlink="http://www.w3.org/1999/xlink" x="0px" y="0px"
	 viewBox="0 0 244 244" style="enable-background:new 0 0 244 244;" xml:space="preserve">
<style type="text/css">
	.st0{fill:#041742;}
	.st1{fill:url(#SVGID_1_);}
	.st2{fill:url(#SVGID_00000093866443297416130100000016832659328357568183_);}
	.st3{fill:#1D1D1B;}
	.st4{fill:#FF000B;}
	.st5{fill:url(#SVGID_00000082359866862631204530000013222777883592828316_);}
	.st6{fill:url(#SVGID_00000155142221650406168340000017636170782589626525_);}
	.st7{fill:url(#SVGID_00000094591077024727804090000004009511963603672238_);}
	.st8{fill:url(#SVGID_00000034078154353697451370000001469380550268067716_);}
	.st9{fill:url(#SVGID_00000106122628041205316430000004118032189233258882_);}
	.st10{fill:url(#SVGID_00000070082269693584705510000016142461794182591118_);}
	.st11{fill:url(#SVGID_00000015332728967222298070000013602785224880719756_);}
	.st12{fill:url(#SVGID_00000136381778887790930650000006360091131252944309_);}
	.st13{fill:url(#SVGID_00000013905629813321359100000011433474026535227531_);}
	.st14{fill:url(#SVGID_00000113341797713487638460000010354989860142788737_);}
	.st15{fill:url(#SVGID_00000124841099511296787120000015968197617379094684_);}
	.st16{fill:#55626A;}
	.st17{fill:#EC1B24;}
	.st18{fill:none;}
	.st19{fill:#009982;}
	.st20{fill:#231F20;}
	.st21{fill:#FFFFFF;}
	.st22{fill:#ED1C24;}
	.st23{fill:#818287;}
	.st24{fill:#58C4C6;}
	.st25{fill:#006F5E;}
	.st26{fill:#00A887;}
	.st27{fill:#F08214;}
	.st28{fill:#003C7F;}
	.st29{fill:#009EE0;}
	.st30{fill-rule:evenodd;clip-rule:evenodd;fill:#1D1D1B;}
	.st31{fill-rule:evenodd;clip-rule:evenodd;fill:#FF1C1C;}
	.st32{fill-rule:evenodd;clip-rule:evenodd;fill:#FF1D1D;}
	.st33{fill-rule:evenodd;clip-rule:evenodd;fill:#FFFFFF;}
	.st34{fill:#003876;}
	.st35{fill:#F58220;}
	.st36{fill:url(#SVGID_00000097471600472475573870000005288361174256942247_);}
	.st37{fill:#1A4582;}
	.st38{fill:#1B4582;}
	.st39{fill:#27166F;}
	.st40{fill-rule:evenodd;clip-rule:evenodd;stroke:#FFFFFF;stroke-miterlimit:10;}
	.st41{fill:none;stroke:#000000;stroke-width:0.9443;stroke-miterlimit:10;}
	.st42{fill:none;stroke:#FFFFFF;stroke-width:0.9443;stroke-miterlimit:10;}
	.st43{fill:#004A8F;}
	.st44{fill:#FEC10D;}
	.st45{fill:#8CC440;}
	.st46{fill:#4A4D4D;}
	.st47{fill:#2978A1;}
	.st48{fill:#008D58;}
	.st49{fill:#E4032E;}
	.st50{fill-rule:evenodd;clip-rule:evenodd;fill:#001A4B;}
	.st51{fill:url(#SVGID_00000123430678363083743860000014690704762847083397_);}
	.st52{fill:#001A4B;}
	.st53{clip-path:url(#SVGID_00000127726823940529001180000017295238488825012144_);}
	.st54{fill:#2179B5;}
	.st55{fill:#003A5D;}
	.st56{fill:#273583;}
	.st57{fill:#009FE3;}
	.st58{fill:url(#SVGID_00000128478226909875677260000013868223760829784249_);}
	.st59{fill-rule:evenodd;clip-rule:evenodd;fill:#002F34;}
	.st60{fill:#E85708;}
	.st61{fill:#0A9E9C;}
	.st62{fill:#24A6CC;}
	.st63{fill:#ED164E;}
	.st64{fill:#6D6E70;}
	.st65{fill:#1A2050;}
	.st66{fill:#7DA9C6;}
	.st67{fill:#89BE5C;}
	.st68{fill:#280071;}
</style>
<path class="st68" d="M103.08,110.43c-6.19,0-11.58,5.39-11.58,11.58s4.83,11.21,11.02,11.21h9.37v-4.78H96.83v-4.41h17.82v-2.02
	C114.65,115.82,109.27,110.43,103.08,110.43z M109.32,119.99H96.83v-4.41h12.49V119.99z M78.82,106.02c0-1.73,1.4-3.12,3.12-3.12
	s3.12,1.4,3.12,3.12c0,1.73-1.4,3.12-3.12,3.12S78.82,107.75,78.82,106.02z M86.72,128.44h4.41v4.78h-13.6v-4.78h4.41v-12.86h-6.61
	v-4.78c6.61,0,11.39,5.14,11.39,11.39V128.44z M65.41,128.44h8.08v4.78h-1.47c-6.98,0-11.39-4.78-11.39-11.39v-6.25h-4.78v-4.78
	h4.78v-9.37h4.78v9.37h5.88v4.78h-5.88V128.44z M212.03,128.44h8.08v4.78h-16.17v-4.78h3.31v-6.61c0-6.25,4.78-11.02,11.39-11.02
	v4.78h-6.61V128.44z M124.39,128.44h9.19v4.78H131c-6.61,0-11.39-4.78-11.39-11.39v-6.25h-4.78v-4.78h4.78v-9.37h4.78v9.37h6.98
	v4.78h-6.98V128.44z M205.42,111.17c0,0-3.67,14.33-4.41,17.27c-0.73,2.94-2.94,5.14-6.61,5.14s-5.88-2.2-6.61-5.14
	c-0.73-2.94-4.41-17.27-4.41-17.27h5.14l3.67,17.27h4.41l3.67-17.27H205.42z M244,111.17c0,0-4.59,18.19-5.88,23.15
	s-5.84,8.27-11.39,8.27h-1.1v-4.59h8.45v-4.41h-2.2c-3.27,0-5.14-2.39-5.88-5.14c-0.73-2.76-4.41-17.27-4.41-17.27h5.14l3.31,17.27
	h5.51l3.31-17.27H244z M171.24,110.43c-6.19,0-11.58,5.39-11.58,11.58s4.83,11.21,11.02,11.21h9.37v-4.78h-15.07v-4.41h17.82v-2.02
	C182.82,115.82,177.43,110.43,171.24,110.43z M177.49,119.99h-12.49v-4.41h12.49V119.99z M146.07,110.43
	c-6.39,0-11.58,5.18-11.58,11.58c0,6.39,5.18,11.58,11.58,11.58c6.39,0,11.58-5.18,11.58-11.58
	C157.64,115.61,152.46,110.43,146.07,110.43z M152.5,128.44h-12.86v-12.86h12.86V128.44z M11.76,113.17v11.76H0v-11.76h5.88v-5.88
	h5.88v-5.88h11.76v11.76H11.76z M34.91,133.75c0,1.42-1.15,2.57-2.57,2.57c-1.42,0-2.57-1.15-2.57-2.57c0-1.42,1.15-2.57,2.57-2.57
	C33.76,131.18,34.91,132.33,34.91,133.75z M28.66,139.63c0,1.22-0.99,2.2-2.2,2.2c-1.22,0-2.2-0.99-2.2-2.2c0-1.22,0.99-2.2,2.2-2.2
	C27.68,137.43,28.66,138.41,28.66,139.63z M23.15,139.63c0,1.42-1.15,2.57-2.57,2.57s-2.57-1.15-2.57-2.57
	c0-1.42,1.15-2.57,2.57-2.57S23.15,138.21,23.15,139.63z M29.4,133.75c0,1.62-1.32,2.94-2.94,2.94c-1.62,0-2.94-1.32-2.94-2.94
	c0-1.62,1.32-2.94,2.94-2.94C28.08,130.81,29.4,132.13,29.4,133.75z M23.52,133.75c0,1.62-1.32,2.94-2.94,2.94
	c-1.62,0-2.94-1.32-2.94-2.94c0-1.62,1.32-2.94,2.94-2.94C22.2,130.81,23.52,132.13,23.52,133.75z M40.42,127.87
	c0,1.22-0.99,2.2-2.2,2.2c-1.22,0-2.2-0.99-2.2-2.2s0.99-2.2,2.2-2.2C39.43,125.67,40.42,126.65,40.42,127.87z M32.34,124.93
	c1.62,0,2.94,1.32,2.94,2.94c0,1.62-1.32,2.94-2.94,2.94c-1.62,0-2.94-1.32-2.94-2.94C29.4,126.25,30.71,124.93,32.34,124.93z
	 M40.79,121.99c0,1.42-1.15,2.57-2.57,2.57c-1.42,0-2.57-1.15-2.57-2.57s1.15-2.57,2.57-2.57
	C39.64,119.42,40.79,120.57,40.79,121.99z M32.34,124.93c-1.62,0-2.94-1.32-2.94-2.94c0-1.62,1.32-2.94,2.94-2.94
	c1.62,0,2.94,1.32,2.94,2.94C35.28,123.62,33.96,124.93,32.34,124.93z"/>
</svg>
